<svg xmlns="http://www.w3.org/2000/svg" width="695.199" height="202.426" viewBox="0 0 695.199 202.426"><g transform="translate(-12.2 -16.019)"><g transform="translate(12.2 16.019)"><path d="M102.36,16.744c.435-.275.935-1.165,1.46-.46Q124.572,33,144.9,50.239c.03,14.37,0,28.735.015,43.105-13.705-11.635-27.245-23.46-40.845-35.21C84.1,74.744,65.775,93.184,46.045,110.049c-.43,26.755.245,53.52-.37,80.275,37.835.4,75.635-1.755,113.465-1.63.405-19.79.49-39.59.485-59.385H192.99q-.022,44.542,0,89.075-90.39.173-180.79-.315c.64-40.71.225-81.43,1.225-122.135C42.66,69.084,72.79,43.229,102.36,16.744Z" transform="translate(-12.2 -16.019)" fill="#1e2326"/></g><g transform="translate(161.66 41.26)"><path d="M527.4,66.916a40.847,40.847,0,0,1,25.32,4.42,35.31,35.31,0,0,1,14.68,15.4,38.851,38.851,0,0,1,2.32,27.04,35.33,35.33,0,0,1-12.695,18.74c-13.665,10.305-34.25,10.205-47.75-.35A35.3,35.3,0,0,1,496.9,113.3c-2.8-10.615-1.04-22.54,5.4-31.525a36.7,36.7,0,0,1,25.1-14.86m1.655,4.71a32.457,32.457,0,0,0-17.1,7.23c-11.895,9.705-14.375,28.28-6.555,41.245a30.627,30.627,0,0,0,14.165,12.38,35.571,35.571,0,0,0,23.24,1.525,30.978,30.978,0,0,0,17.84-12.945,33.578,33.578,0,0,0,3.875-26.82,30.665,30.665,0,0,0-12.1-17.125A34.119,34.119,0,0,0,529.051,71.626Z" transform="translate(-403.366 -66.501)" fill="#1e2225"/><path d="M311.12,67.5H315.6q16.238,28.065,32.475,56.13c.235-.43.48-.86.72-1.29,10.625-18.255,21.155-36.565,31.76-54.84h4.3c.165,7.25.035,14.505.075,21.755-.035,16.96.11,33.915.06,50.87-1.74.01-3.48,0-5.215-.04q.06-30.982-.09-61.965c-10.21,17.4-20.19,34.93-30.39,52.33-.21.01-.63.035-.84.045-.575.01-1.145.02-1.71.025q-15.218-26.182-30.435-52.355-.008,30.975.005,61.95c-1.735.01-3.465.01-5.2.01Z" transform="translate(-311.12 -67.001)" fill="#1e2225"/><path d="M683.375,140.115q.008-36.315.01-72.635c7.27.02,14.535,0,21.8.01,5.175.025,10.4-.205,15.515.775a37.054,37.054,0,0,1,20.41,10.55,34.687,34.687,0,0,1,9.365,20.855c.9,8.775-1.02,17.99-6.155,25.25a35.1,35.1,0,0,1-18.595,13.215,46.67,46.67,0,0,1-14.02,1.985q-14.167-.015-28.33,0m5.31-67.81v63.06q9.735.007,19.47,0a52.992,52.992,0,0,0,13.56-1.175A30.644,30.644,0,0,0,739.58,122.7c4.925-6.675,6.54-15.345,5.53-23.475a29.709,29.709,0,0,0-8.835-18.055c-6.25-6.02-15.065-8.76-23.615-8.86Q700.675,72.3,688.685,72.305Z" transform="translate(-497.245 -66.991)" fill="#1e2225"/><path d="M853.5,67.494q2.655-.007,5.31,0,.015,21.623.01,43.245c.17,6.7,1.72,13.895,6.555,18.855,4.455,4.625,11.13,6.24,17.37,6.16,6.21.06,12.835-1.62,17.225-6.27,4.835-5.11,6.28-12.435,6.4-19.25-.015-14.235.035-28.465-.025-42.7,1.775-.055,3.56-.055,5.345-.03q-.023,20.355-.005,40.7a43.518,43.518,0,0,1-2.325,15.585,24.31,24.31,0,0,1-10.595,12.96c-6.17,3.565-13.56,4.315-20.545,3.665-6.855-.63-13.765-3.515-18.145-8.985-4.84-5.905-6.47-13.755-6.58-21.22Q853.489,88.854,853.5,67.494Z" transform="translate(-582.306 -66.995)" fill="#1e2225"/><path d="M1019.22,67.516c1.775-.03,3.555-.03,5.335-.01q-.022,33.938,0,67.865,20.872,0,41.74-.005c0,1.585.01,3.17,0,4.76q-23.528-.015-47.055-.005Q1019.22,103.821,1019.22,67.516Z" transform="translate(-665.17 -66.997)" fill="#1e2225"/><path d="M1149.95,67.524c1.77-.04,3.54-.04,5.315-.03q16.71,36.308,33.4,72.625h-5.7c-3.095-6.8-6.235-13.59-9.3-20.4-14.075-.03-28.15-.1-42.22.035-2.99,6.82-6.11,13.585-9.17,20.375-1.89-.005-3.775,0-5.66-.01,11.045-24.225,22.28-48.37,33.33-72.59m2.6,5.795c-6.285,13.99-12.65,27.95-18.97,41.925h38.085C1165.295,101.269,1158.96,87.279,1152.555,73.319Z" transform="translate(-713.87 -66.995)" fill="#1e2225"/><path d="M1287.11,67.509c8.48-.02,16.96,0,25.44-.01,8.1-.035,16.83,1.605,22.955,7.3,7.225,6.685,8.5,17.995,5.1,26.9-2.505,6.565-8.6,11.085-15.2,13.03,6,8.495,12.085,16.925,18.11,25.4-2.015-.135-4.16.275-6.09-.185-5.835-7.97-11.475-16.09-17.27-24.085-4.66.7-9.375.49-14.07.52q-6.862,0-13.715,0c-.02,7.92-.005,15.835-.01,23.755h-5.245q-.015-36.308-.01-72.615m5.26,4.805q-.008,19.688,0,39.37,10.328.008,20.665.005a32.9,32.9,0,0,0,13.5-2.48,17.092,17.092,0,0,0,8.13-7.305,22.312,22.312,0,0,0,1.945-14.215,16.781,16.781,0,0,0-6.55-10.885c-4.59-3.345-10.43-4.385-16-4.49Q1303.215,72.3,1292.37,72.314Z" transform="translate(-799.115 -67)" fill="#1e2225"/><path d="M629.738,260.188a47.542,47.542,0,0,1,28.46,4.39,38.543,38.543,0,0,1,15.365,14.2c8.58,14.065,7.345,33.595-3.46,46.155a41.144,41.144,0,0,1-24.585,13.615,47.729,47.729,0,0,1-28.855-3.86,38.544,38.544,0,0,1-17.28-16.74c-7.39-14.175-5.46-32.925,5.435-44.8a41.508,41.508,0,0,1,24.92-12.95m2.99,14.99a23.617,23.617,0,0,0-9.905,4.005,23.268,23.268,0,0,0-9.265,14.625c-1.565,7.9.13,16.73,5.685,22.765,8.585,9.535,24.98,10.04,34.335,1.36,10.215-9.435,10.165-27.67-.1-37.05C647.968,275.823,640.018,273.958,632.728,275.178Z" transform="translate(-453.043 -163.079)" fill="#1e2225"/><path d="M984.065,263.345c7.61-3.52,16.245-4.135,24.51-3.445a49.505,49.505,0,0,1,21.2,6.525c-1.78,4.52-3.67,8.995-5.455,13.515-6.4-3.435-13.465-5.9-20.8-5.985-4.125-.02-8.575.325-12.07,2.74a7.077,7.077,0,0,0-2.53,8.645c1.45,2.655,4.46,3.83,7.165,4.785,7.55,2.395,15.535,3.29,22.905,6.3,4.21,1.7,8.32,4.165,10.935,7.975,3.175,4.585,3.75,10.56,2.6,15.91a21.954,21.954,0,0,1-10.905,14.14c-7.43,4.185-16.23,5.135-24.615,4.715-9.79-.645-19.865-2.975-27.935-8.8,2-4.465,4.04-8.915,6.015-13.39a45.537,45.537,0,0,0,27.95,7.915c3.48-.255,7.215-.815,9.995-3.1a6.378,6.378,0,0,0,.92-8.92c-1.94-2.15-4.775-3.145-7.455-4.01-7.13-2.12-14.585-3.135-21.515-5.915-4.58-1.82-9.04-4.58-11.665-8.875-3.07-5.075-3.37-11.5-1.715-17.1C973.445,270.835,978.325,265.975,984.065,263.345Z" transform="translate(-640.095 -163.076)" fill="#1e2225"/><path d="M1282.57,268.111c6.025-5.79,14.58-7.94,22.71-8.365,10.315-.48,21.04,1.315,29.975,6.71q-2.737,6.78-5.5,13.545c-7.83-4.43-17-6.96-26.015-5.735-3.025.45-6.24,1.4-8.285,3.815-2.215,2.53-2.33,6.945.435,9.135,3.38,2.73,7.8,3.55,11.9,4.61,8.41,2.045,17.515,3.46,24.43,9.09,7.615,6.225,8.145,18.315,2.875,26.2-4.27,6.49-11.825,9.965-19.265,11.3a62.762,62.762,0,0,1-29.875-2.32,40.5,40.5,0,0,1-11.405-5.72c2.01-4.47,4.035-8.935,6.04-13.41a45.329,45.329,0,0,0,26.675,7.99c3.7-.155,7.66-.58,10.78-2.785a6.509,6.509,0,0,0,1.925-8.57c-1.525-2.3-4.215-3.41-6.715-4.315-7.345-2.41-15.12-3.325-22.34-6.155-5.24-2-10.415-5.275-12.905-10.495C1274.255,284.6,1276.055,274.216,1282.57,268.111Z" transform="translate(-792.835 -163.086)" fill="#1e2225"/><path d="M418.125,262.225q8.9.008,17.81,0,0,15.188,0,30.37,17.5.008,35.005,0-.015-15.187,0-30.37c5.92-.015,11.845.03,17.765-.025.1,25.675.02,51.35.04,77.025h-17.81q-.008-15.78,0-31.56-17.5-.008-35,0c.01,10.505-.025,21.015.02,31.52-5.945.09-11.89.02-17.835.035Q418.128,300.722,418.125,262.225Z" transform="translate(-364.62 -164.351)" fill="#1e2225"/><path d="M797.753,262.24c5.93-.005,11.855.015,17.785-.01.06,14.28-.005,28.56.035,42.84.075,5.13.8,10.62,4.02,14.815a14.6,14.6,0,0,0,10.31,5.325c4.43.445,9.225.015,13.01-2.53a15.226,15.226,0,0,0,5.92-9.045c1.065-3.9,1.06-7.99,1.04-12.005q.008-19.7.005-39.4,8.8.008,17.6,0c.035,12.285.005,24.57.015,36.855-.015,5.175.14,10.4-.85,15.515-1.335,7.52-5.12,14.81-11.36,19.39-7.505,5.6-17.295,7.03-26.43,6.42-8.425-.52-17.075-3.535-22.815-9.95-5.975-6.555-8.2-15.66-8.29-24.335Q797.737,284.185,797.753,262.24Z" transform="translate(-554.432 -164.366)" fill="#1e2225"/><path d="M1130.245,262.25h58.185c.005,4.77,0,9.535.01,14.3-13.485.02-26.965-.005-40.445.01q-.008,8.34,0,16.685,17.835,0,35.665-.005c.05,4.625.01,9.25.02,13.88q-17.843.008-35.685.005c-.015,5.92.025,11.84-.02,17.765,13.96.1,27.93.01,41.9.045v14.31q-29.82-.008-59.63-.01Q1130.255,300.743,1130.245,262.25Z" transform="translate(-720.68 -164.376)" fill="#1e2225"/></g></g></svg>