<?xml version="1.0" encoding="UTF-8"?>
<svg id="Layer_1" xmlns="http://www.w3.org/2000/svg" version="1.1" viewBox="0 0 1920 1080">
  <!-- Generator: Adobe Illustrator 30.2.1, SVG Export Plug-In . SVG Version: 2.1.1 Build 1)  -->
  <defs>
    <style>
      .st0 {
        fill: #1e2326;
      }

      .st1 {
        fill: none;
        stroke: #000;
        stroke-linecap: round;
        stroke-linejoin: round;
      }

      .st2 {
        fill: #1e2225;
      }
    </style>
  </defs>
  <path class="st0" d="M427.75,714.2H121.21v-212.24l156.59-140.13,110.2,95.03v-116.32l-110.87-91.63s-1.65-.73-2.43-.08L29.88,472.38v322.2l487.94-.05v-240.58h-90.06v160.26Z"/>
  <path class="st1" d="M868.22,391.22c-5.13-18.76-16.68-35.14-32.66-46.21-18.54-12.41-40.94-17.68-63.07-14.82l-.03-.03c-16.95,1.86-33.01,8.66-46.15,19.51-32.09,26.21-38.81,76.33-17.68,111.33,8.93,14.87,22.29,26.56,38.24,33.41,19.86,8.37,41.94,9.82,62.72,4.1,19.78-5.34,36.92-17.79,48.15-34.92,13.49-21.59,17.3-47.85,10.47-72.38Z"/>
  <path class="st2" d="M882.2,443.93c6.75-24.29,4.53-50.2-6.26-72.98-8.61-17.6-22.45-32.12-39.62-41.56-20.89-11.23-44.86-15.41-68.34-11.93l-.03-.03c-27.15,3.43-51.68,17.95-67.74,40.11-17.38,24.26-22.13,56.46-14.57,85.1,5.29,20.19,17,38.05,33.41,50.93,36.44,28.5,92.01,28.77,128.87.94,16.68-12.66,28.72-30.42,34.28-50.58ZM809.6,498.53c-20.78,5.72-42.86,4.26-62.72-4.1-15.95-6.86-29.31-18.54-38.24-33.41-21.13-35-14.41-85.12,17.68-111.33,13.14-10.85,29.2-17.65,46.15-19.51l.03.03c22.13-2.86,44.53,2.4,63.07,14.82,15.98,11.07,27.53,27.45,32.66,46.21,6.83,24.53,3.02,50.79-10.47,72.38-11.23,17.14-28.37,29.58-48.15,34.92Z"/>
  <path class="st2" d="M618.57,513.59c4.67.11,9.37.11,14.06.11.13-45.75-.27-91.52-.16-137.29-.11-19.57.24-39.13-.22-58.7h-11.61c-28.64,49.34-57.05,98.75-85.72,148.01-.65,1.16-1.32,2.32-1.94,3.48-29.23-50.5-58.43-100.99-87.66-151.49h-12.06v195.97h14.03v-167.2c27.37,47.07,54.73,94.19,82.13,141.29,1.54,0,3.05-.05,4.62-.05.57,0,1.7-.11,2.27-.11,27.53-46.96,54.46-94.27,82.02-141.23.27,55.73.35,111.49.24,167.22Z"/>
  <path class="st1" d="M1102.21,403.34c-2.05-18.51-10.47-35.76-23.86-48.74-16.87-16.25-40.67-23.64-63.72-23.91h-64.72v170.22h52.55c12.28.51,24.59-.54,36.6-3.18,19.27-4.26,36.35-15.28,48.23-31.04,13.28-18.03,17.65-41.43,14.93-63.34Z"/>
  <path class="st2" d="M1116.68,404.56c-1.81-21.11-10.71-40.94-25.26-56.3-14.87-15.09-34.17-25.05-55.08-28.47-13.82-2.67-27.93-2.02-41.89-2.11-19.62-.03-39.22.03-58.84-.03-.03,65.37-.03,130.71-.03,196.05v.03c25.48-.03,50.98-.03,76.46,0,12.82.13,25.56-1.67,37.84-5.37,20.21-5.96,37.89-18.51,50.17-35.65,13.87-19.59,19.05-44.45,16.63-68.15ZM1087.29,466.69c-11.88,15.76-28.96,26.77-48.23,31.04-12.01,2.64-24.32,3.7-36.6,3.18h-52.55v-170.22h64.72c23.05.27,46.85,7.66,63.72,23.91,13.39,12.98,21.81,30.23,23.86,48.74,2.73,21.92-1.65,45.31-14.93,63.34Z"/>
  <path class="st2" d="M1322.15,427.55c-.05-36.6-.05-73.22,0-109.85-4.8-.08-9.61-.08-14.41.08.16,38.43.03,76.81.08,115.24-.32,18.41-4.21,38.16-17.27,51.95-11.82,12.55-29.71,17.08-46.48,16.92-16.84.22-34.84-4.16-46.88-16.63-13.04-13.36-17.22-32.79-17.68-50.87,0-38.89,0-77.78-.03-116.7h-14.33l-.05-.05v115.27c.3,20.16,4.7,41.35,17.76,57.27,11.82,14.79,30.5,22.56,48.99,24.26,18.84,1.78,38.78-.24,55.44-9.88,13.36-7.91,23.48-20.3,28.58-34.98,4.64-13.52,6.77-27.77,6.29-42.05Z"/>
  <path class="st2" d="M1403.17,500.91c-.03-61.05-.03-122.1,0-183.18-4.8-.05-9.58-.05-14.39.03v.05c0,65.31.03,130.63.05,195.94,42.32-.03,84.64-.03,126.98,0,.03-4.29,0-8.56,0-12.85h-112.65Z"/>
  <path class="st1" d="M1617.16,333.44h0c-16.98,37.76-34.14,75.43-51.2,113.17h102.77c-17.17-37.73-34.28-75.49-51.55-113.17h-.03Z"/>
  <path class="st2" d="M1610.17,317.79l-.03.03c-29.82,65.37-60.13,130.55-89.95,195.91h15.28c8.26-18.33,16.68-36.57,24.75-54.98,37.97-.38,75.97-.19,113.95-.11,8.29,18.38,16.76,36.71,25.1,55.06h15.38c-30.04-65.34-60.08-130.65-90.14-195.99-4.78-.03-9.55-.03-14.33.08ZM1565.97,446.61c17.06-37.73,34.22-75.41,51.2-113.17h.03c17.27,37.68,34.38,75.43,51.55,113.17h-102.77Z"/>
  <path class="st1" d="M1856.69,430.28c9.28-3.99,16.98-10.93,21.94-19.73,5.94-11.85,7.77-25.34,5.24-38.38-1.81-11.74-8.15-22.29-17.68-29.39-12.39-9.04-28.15-11.85-43.18-12.12-19.51-.05-39-.05-58.51,0l-.03.05v106.26h55.79c12.47.35,24.88-1.92,36.44-6.69Z"/>
  <path class="st2" d="M1764.44,513.78c.03-21.38-.03-42.75.03-64.13h37c12.66-.08,25.4.49,37.97-1.4,15.65,21.56,30.88,43.48,46.61,64.99,5.21,1.21,10.98.13,16.44.49-16.27-22.86-32.68-45.61-48.88-68.55,17.81-5.26,34.25-17.43,41.02-35.17,9.18-24.02,5.72-54.57-13.76-72.6-16.52-15.36-40.08-19.81-61.94-19.7-22.89.03-45.77-.03-68.66.03v.08c0,65.31,0,130.63.03,195.97h14.14ZM1764.47,330.72l.03-.05c19.51-.05,39-.05,58.51,0,15.03.27,30.79,3.08,43.18,12.12,9.53,7.1,15.87,17.65,17.68,29.39,2.54,13.04.7,26.53-5.24,38.38-4.97,8.8-12.66,15.73-21.94,19.73-11.55,4.78-23.97,7.04-36.44,6.69h-55.79v-106.26Z"/>
  <path class="st1" d="M974.15,634.32c-14.87-13.68-36.33-18.7-56-15.41l.03.03c-9.61,1.51-18.76,5.21-26.75,10.82-13.09,9.45-22.05,23.59-25.02,39.46-4.24,21.32.35,45.15,15.33,61.43,23.18,25.75,67.42,27.1,92.68,3.67,27.58-25.45,27.42-74.68-.27-99.99Z"/>
  <path class="st2" d="M986.91,590.3c-23.75-11.79-50.6-15.92-76.81-11.85h-.03c-25.8,3.48-49.58,15.84-67.26,34.95-29.39,32.06-34.6,82.67-14.66,120.91,10.34,19.65,26.67,35.49,46.64,45.18,24.24,11.5,51.44,15.14,77.86,10.42,25.75-4.08,49.26-17.08,66.37-36.73,29.15-33.87,32.49-86.58,9.34-124.55-10.01-16.36-24.37-29.61-41.46-38.32ZM974.42,734.31c-25.26,23.43-69.5,22.08-92.68-3.67-14.98-16.27-19.57-40.11-15.33-61.43,2.97-15.87,11.93-30.01,25.02-39.46,7.99-5.61,17.14-9.31,26.75-10.82l-.03-.03c19.68-3.29,41.13,1.73,56,15.41,27.69,25.32,27.85,74.54.27,99.99Z"/>
  <path class="st2" d="M1455.85,676.26c-19.92-8.12-41.46-10.55-61.83-17-7.29-2.59-15.41-5.78-19.32-12.93-3.62-8.39-.76-18.19,6.83-23.32,9.42-6.5,21.46-7.45,32.58-7.4,19.78.22,38.86,6.88,56.14,16.14,4.8-12.23,9.9-24.29,14.71-36.49-17.49-10.12-37.06-16.14-57.22-17.6-22.32-1.86-45.61-.19-66.15,9.31h0c-15.49,7.1-28.66,20.21-33.66,36.76-4.45,15.11-3.64,32.44,4.64,46.15,7.07,11.61,19.11,19.05,31.47,23.97,18.7,7.5,38.84,10.26,58.08,15.98,7.23,2.35,14.9,5.02,20.13,10.82,5.91,7.34,4.8,18.08-2.48,24.07-7.48,6.15-17.57,7.66-26.96,8.37-26.8,1.3-53.3-6.21-75.43-21.38-5.34,12.06-10.85,24.1-16.25,36.14,21.78,15.71,48.96,22.02,75.38,23.75,22.62,1.16,46.37-1.43,66.42-12.71,14.79-7.99,25.48-21.83,29.45-38.16,3.1-14.44,1.57-30.58-7.02-42.94-7.04-10.28-18.14-16.95-29.5-21.54Z"/>
  <path class="st2" d="M1888.94,688.4c-18.65-15.19-43.24-19-65.93-24.53-11.07-2.86-22.99-5.07-32.12-12.44-7.48-5.91-7.15-17.84-1.19-24.67,5.53-6.53,14.2-9.1,22.37-10.31,24.34-3.32,49.09,3.51,70.23,15.46,4.97-12.17,9.93-24.37,14.84-36.57-24.1-14.55-53.06-19.41-80.89-18.11-21.94,1.13-45.02,6.94-61.29,22.56l-.03.08c-17.6,16.46-22.45,44.48-12.31,66.18,6.72,14.09,20.7,22.91,34.84,28.31,19.49,7.61,40.48,10.09,60.29,16.6,6.75,2.46,13.98,5.45,18.11,11.66,4.51,7.88,2.24,17.92-5.21,23.13-8.42,5.96-19.11,7.13-29.09,7.53-25.67.54-50.87-6.99-72.01-21.56-5.4,12.09-10.88,24.13-16.3,36.19,9.39,6.75,19.78,11.96,30.79,15.44,25.99,8.56,53.65,10.71,80.64,6.26,20.11-3.62,40.48-12.98,52.01-30.5,14.22-21.27,12.77-53.9-7.77-70.71Z"/>
  <path class="st2" d="M768.14,580.45c-15.98.13-31.98,0-47.96.05v81.97h-94.49v-81.97h-48.07l.03.03v207.79c16.03-.05,32.06.13,48.12-.11-.11-28.37-.03-56.7-.05-85.07h94.46v85.18h48.07c-.05-69.28.16-138.59-.11-207.87Z"/>
  <path class="st2" d="M1278.07,580.47h-47.5v106.34c.05,10.85.08,21.89-2.81,32.41-2.16,9.82-7.85,18.51-15.98,24.43-10.23,6.88-23.16,8.04-35.11,6.83-10.85-.76-20.94-5.96-27.83-14.39-8.69-11.34-10.63-26.15-10.85-40-.08-38.54.08-77.08-.08-115.62-16,.08-31.98.03-47.99.03l-.05.03v118.46c.24,23.4,6.26,47.99,22.37,65.66,15.49,17.3,38.86,25.45,61.59,26.85,24.67,1.65,51.06-2.21,71.33-17.33,16.84-12.36,27.04-32.04,30.66-52.33,2.67-13.82,2.24-27.93,2.29-41.89-.05-33.17.03-66.31-.05-99.48Z"/>
  <path class="st2" d="M1586.48,749.56c.14-16,0-31.98.05-47.96h96.32c-.03-12.5.08-24.99-.05-37.46h-96.27v-45.02c36.38-.03,72.76.03,109.14-.03-.03-12.85-.03-25.72-.03-38.59h-157.02v207.79c53.63.03,107.28.03,160.94.03v-38.62c-37.7-.11-75.41.13-113.08-.13Z"/>
</svg>